<?xml version="1.0" encoding="UTF-8"?>
<svg xmlns="http://www.w3.org/2000/svg" id="Layer_2" viewBox="0 0 500.01 370.56">
  <defs>
    <style>.cls-1{fill:#f16136;}</style>
  </defs>
  <g id="Layer_1-2">
    <g>
      <path d="m29.69,113.79c0-3.93-3.18-7.11-7.11-7.11H7.11c-3.93,0-7.11,3.18-7.11,7.11s3.18,7.11,7.11,7.11h15.47c3.93,0,7.11-3.18,7.11-7.11Z"></path>
      <path d="m32.81,58.96c-2.8-2.62-7.16-2.55-9.88.14s-2.8,7.07-.2,9.88l10.9,10.93h0c1.31,1.41,3.14,2.23,5.07,2.27,1.93.04,3.79-.71,5.16-2.07,1.37-1.36,2.12-3.22,2.09-5.14-.03-1.93-.84-3.76-2.25-5.08l-10.89-10.93Z"></path>
      <path d="m38.7,145.4c-1.93.04-3.76.86-5.07,2.27l-10.89,10.92c-1.41,1.32-2.22,3.15-2.25,5.08-.03,1.93.73,3.79,2.09,5.15,1.37,1.36,3.23,2.11,5.16,2.07,1.93-.04,3.76-.86,5.07-2.27l10.89-10.92c1.41-1.32,2.22-3.15,2.25-5.08.03-1.93-.73-3.79-2.09-5.15-1.37-1.36-3.23-2.11-5.16-2.07Z"></path>
      <path d="m500.01,149.44c0-5.91-2.36-11.56-6.54-15.73-4.18-4.18-9.84-6.52-15.74-6.52h-8.37V55.39c-.02-12.38-4.95-24.24-13.71-32.99s-20.63-13.66-33.01-13.67h-249.13c-12.69.05-24.82,5.25-33.63,14.39h0s-4.84-1.85-4.84-1.85c-1.13-8.33-6.43-15.49-14.06-19.02-7.63-3.52-16.52-2.91-23.59,1.63-7.07,4.54-11.34,12.37-11.31,20.77v54.88l-26.34,8.55c-2.93.95-4.91,3.68-4.91,6.76v37.87c0,3.08,1.98,5.81,4.91,6.76h0s26.34,8.55,26.34,8.55v54.88c-.03,6.34,2.4,12.46,6.78,17.05,4.38,4.59,10.37,7.3,16.71,7.57s12.53-1.94,17.28-6.14v19.57h-9.59c-4.2,0-8.23,1.67-11.2,4.64s-4.64,7-4.64,11.19v20.04c.02,9.51,3.8,18.63,10.53,25.35,6.73,6.72,15.84,10.5,25.35,10.51h204.27v35.63c.01,5.9,2.36,11.56,6.54,15.73,4.18,4.17,9.84,6.51,15.74,6.51h113.86c5.9,0,11.56-2.34,15.74-6.51,4.18-4.17,6.53-9.83,6.54-15.73v-198.88s0,0,0,0Zm-413.93-16.35l-17.03-5.54v-27.54l17.03-5.53v38.6Zm35.1,69.82c0,5.76-4.67,10.43-10.43,10.43s-10.43-4.67-10.43-10.43V24.66c0-5.77,4.67-10.44,10.43-10.44s10.43,4.67,10.43,10.44v178.25Zm356.54-62.59h0c4.11,0,7.71,2.74,8.8,6.71h-131.45c1.09-3.96,4.68-6.7,8.79-6.71h113.86Zm9.15,19.82v168.68h-132.17v-168.68h132.17ZM135.38,36.62l107.19,40.77v72.78l-107.19,40.79V36.62Zm206.19,261.85h-204.27c-5.74,0-11.25-2.28-15.3-6.34-4.06-4.05-6.35-9.56-6.36-15.3v-20.04c.02-.89.73-1.6,1.62-1.61h224.31v43.29Zm6.54-164.77c-4.18,4.17-6.53,9.83-6.54,15.73v91.53h-200.48l-.02-36.96,106.66-40.58h38.65c11.61-.01,22.75-4.63,30.96-12.84,8.21-8.21,12.83-19.34,12.84-30.95v-11.68c-.02-11.61-4.64-22.74-12.85-30.95-8.21-8.21-19.34-12.82-30.96-12.83h-38.63l-92.8-35.31c5.43-3.84,11.91-5.9,18.55-5.89h249.13c8.6,0,16.86,3.42,22.95,9.5,6.09,6.07,9.52,14.32,9.55,22.93v71.8h-91.28c-5.9,0-11.56,2.34-15.74,6.51Zm-91.32,15.49v-70.81s29.59,0,29.59,0c7.84,0,15.36,3.12,20.91,8.66,5.55,5.54,8.67,13.06,8.68,20.9v11.68c0,7.84-3.13,15.36-8.68,20.9-5.55,5.54-13.07,8.66-20.91,8.67h-29.59Zm230.07,199.13c-.02,5.04-4.11,9.12-9.15,9.12h-113.86c-5.05,0-9.14-4.07-9.16-9.12v-6.38h132.17v6.38s0,0,0,0Z"></path>
      <polygon class="cls-1" points="242.57 77.39 135.38 36.62 135.38 190.96 242.57 150.17 242.57 77.39"></polygon>
      <polygon class="cls-1" points="69.05 127.55 86.08 133.09 86.08 94.48 69.05 100.01 69.05 127.55"></polygon>
      <path class="cls-1" d="m110.75,14.22c-5.76,0-10.43,4.67-10.43,10.44v178.25c0,5.76,4.67,10.43,10.43,10.43s10.43-4.67,10.43-10.43V24.66c0-5.77-4.67-10.44-10.43-10.44Z"></path>
      <path class="cls-1" d="m307.3,140.53c5.55-5.54,8.67-13.06,8.68-20.9v-11.68c-.01-7.84-3.13-15.35-8.68-20.9-5.55-5.54-13.06-8.66-20.91-8.66h-29.59s0,70.81,0,70.81h29.59c7.84,0,15.36-3.12,20.91-8.67Z"></path>
      <path d="m423.76,261.07c12.83,0,25.14-5.1,34.21-14.17,9.07-9.07,14.17-21.38,14.17-34.21,0-12.83-5.09-25.14-14.16-34.21-9.07-9.07-21.38-14.18-34.21-14.18-12.83,0-25.14,5.09-34.22,14.16-9.07,9.07-14.18,21.37-14.18,34.2h0c0,12.83,5.11,25.13,14.18,34.21,9.07,9.07,21.37,14.18,34.2,14.2Zm7.14-81.83c.13.02.25.07.38.1,1.3.29,2.57.66,3.83,1.11l1.08.39c1.35.52,2.66,1.12,3.93,1.8h0c.09.05.16.11.25.15,1.18.66,2.32,1.4,3.41,2.2.31.21.61.44.9.67,1.14.88,2.22,1.81,3.24,2.82h0s0,0,0,0v.03c1,1.02,1.95,2.11,2.81,3.24h0c.23.31.45.6.67.9.81,1.1,1.56,2.25,2.23,3.45.04.08.09.14.13.22.69,1.28,1.29,2.6,1.81,3.96.14.35.26.7.39,1.05.45,1.27.82,2.56,1.12,3.87.02.12.06.23.09.35h-26.31l.03-26.32Zm-33.68,11.94c4.92-6.08,11.78-10.3,19.43-11.94v33.43c0,3.93,3.18,7.11,7.11,7.11h33.42c-2.44,11.03-10.18,20.15-20.66,24.35-10.49,4.2-22.38,2.95-31.77-3.34-9.38-6.29-15.05-16.82-15.14-28.12h-.01c.01-7.82,2.7-15.41,7.62-21.49Z"></path>
      <path class="cls-1" d="m457.08,205.21c-.3-1.31-.68-2.6-1.12-3.87-.13-.36-.25-.71-.39-1.05-.52-1.36-1.12-2.68-1.81-3.96-.04-.08-.09-.14-.13-.22-.67-1.19-1.42-2.34-2.23-3.45-.22-.3-.44-.59-.67-.89h0c-.87-1.14-1.81-2.23-2.81-3.25v-.03c-1.02-1.01-2.11-1.95-3.24-2.82-.29-.23-.59-.46-.9-.67-1.09-.8-2.23-1.54-3.41-2.2-.09-.05-.16-.11-.25-.15h0c-1.27-.68-2.59-1.29-3.93-1.8l-1.08-.39c-1.25-.45-2.53-.82-3.83-1.11-.13-.03-.25-.08-.38-.1l-.03,26.32h26.31c-.03-.12-.07-.23-.09-.35Z"></path>
      <polygon points="389.6 212.67 389.6 212.67 389.6 212.67 389.6 212.67"></polygon>
      <path class="cls-1" d="m389.6,212.67h0,0c.09,11.3,5.76,21.83,15.14,28.12,9.39,6.3,21.27,7.55,31.77,3.34,10.49-4.21,18.22-13.32,20.66-24.35h-33.42c-3.93,0-7.11-3.18-7.11-7.11v-33.43c-7.65,1.64-14.51,5.86-19.43,11.94-4.92,6.08-7.61,13.67-7.62,21.49h.01Z"></path>
      <path d="m378.95,283.37h83.66c3.93,0,7.11-3.18,7.11-7.11s-3.18-7.11-7.11-7.11h-83.66c-3.93,0-7.11,3.18-7.11,7.11s3.18,7.11,7.11,7.11Z"></path>
      <path d="m378.95,309.93h83.66c3.93,0,7.11-3.18,7.11-7.11s-3.18-7.11-7.11-7.11h-83.66c-3.93,0-7.11,3.18-7.11,7.11s3.18,7.11,7.11,7.11Z"></path>
    </g>
  </g>
</svg>
