<?xml version="1.0" encoding="UTF-8"?>
<!-- Generator: Adobe Illustrator 27.9.0, SVG Export Plug-In . SVG Version: 6.00 Build 0)  -->
<svg xmlns="http://www.w3.org/2000/svg" xmlns:xlink="http://www.w3.org/1999/xlink" version="1.1" id="Layer_1" x="0px" y="0px" viewBox="0 0 64 63.4" style="enable-background:new 0 0 64 63.4;" xml:space="preserve">
<style type="text/css">
	.st0{fill:#F16136;}
</style>
<polygon class="st0" points="42.5,61 35.9,61.2 25.8,61.1 21.9,60.9 20.4,59.7 20.1,58.2 21.8,57.1 33.7,56.9 41.1,57.1 43,56.8   43.9,58.2 44.1,59.8 "></polygon>
<polygon class="st0" points="24.1,23.9 15.6,24.1 13.1,24.1 11.8,20.5 10.7,15.4 14.3,14.7 25.2,15 26.6,15.1 "></polygon>
<polygon class="st0" points="39,21.8 38.9,25.2 39.1,30.4 41.3,31 44.9,30.6 44.9,26.1 49.1,25.9 48.8,30.6 52.9,31 54.4,30.9   54.9,30.5 55,22.2 50.5,20.4 47.5,22.3 45.2,21.3 42.9,20.1 41.4,21.6 "></polygon>
<g>
	<path d="M59,2H5C3.3,2,2,3.3,2,5v40c0,1.7,1.3,3,3,3h21.7l-2.4,8H22c-1.7,0-3,1.3-3,3s1.3,3,3,3h20c1.7,0,3-1.3,3-3s-1.3-3-3-3   h-2.3l-2.4-8H59c1.7,0,3-1.3,3-3V5C62,3.3,60.7,2,59,2z M5,4h54c0.6,0,1,0.4,1,1v33H4V5C4,4.4,4.4,4,5,4z M43,59c0,0.6-0.4,1-1,1   H22c-0.6,0-1-0.4-1-1s0.4-1,1-1h20C42.6,58,43,58.4,43,59z M37.7,56H26.3l2.4-8h6.5L37.7,56z M59,46H5c-0.6,0-1-0.4-1-1v-5h56v5   C60,45.6,59.6,46,59,46z M35,43c0,0.6-0.4,1-1,1c0,0,0,0,0,0h-4c-0.6,0-1-0.4-1-1s0.4-1,1-1h4C34.6,42,35,42.4,35,43   C35,43,35,43,35,43z M22,29c0.8,0,1.5,0.7,1.5,1.5S22.8,32,22,32s-1.5-0.7-1.5-1.5S21.2,29,22,29L22,29z M7,12h2.2l2.6,11.3   c-1.5,0.7-2.2,2.4-1.6,3.9c0.5,1.1,1.6,1.8,2.8,1.8h12c0.6,0,1-0.4,1-1s-0.4-1-1-1H13c-0.6,0-1-0.4-1-1s0.4-1,1-1h11   c0.4,0,0.8-0.3,0.9-0.7l3-9c0.2-0.5-0.1-1.1-0.6-1.3C27.2,14,27.1,14,27,14H11.7L11,10.8c-0.1-0.5-0.5-0.8-1-0.8H7   c-0.6,0-1,0.4-1,1S6.4,12,7,12z M25.6,16l-2.3,7h-9.5l-1.6-7H25.6z M14,29c0.8,0,1.5,0.7,1.5,1.5S14.8,32,14,32s-1.5-0.7-1.5-1.5   S13.2,29,14,29L14,29z M28,24h4.6l-0.3-0.3c-0.4-0.4-0.4-1,0-1.4c0.4-0.4,1-0.4,1.4,0l2,2c0.4,0.4,0.4,1,0,1.4l-2,2   c-0.4,0.4-1,0.4-1.4,0c-0.4-0.4-0.4-1,0-1.4l0.3-0.3H28c-0.6,0-1-0.4-1-1S27.4,24,28,24z M38,22.4V31c0,0.6,0.4,1,1,1c0,0,0,0,0,0   h16c0.6,0,1-0.4,1-1c0,0,0,0,0,0v-8.6c1.2-0.7,2-2,2-3.4c0-0.2-2-8.1-2-8.2c-0.1-0.4-0.5-0.8-1-0.8H39c-0.5,0-0.9,0.3-1,0.8   c0,0.2-2,8-2,8.2C36,20.4,36.8,21.7,38,22.4z M46,30v-3h2v3H46z M54,30h-4v-4c0-0.6-0.4-1-1-1c0,0,0,0,0,0h-4c-0.6,0-1,0.4-1,1   c0,0,0,0,0,0v4h-4v-7c1.2,0,2.4-0.5,3.1-1.5c2.2,2,5.6,2,7.8,0c0.8,0.9,1.9,1.5,3.1,1.5V30z M39.8,12h14.4l1.8,7.1   c-0.1,1.1-1,1.9-2.1,1.9c-1.1-0.1-1.9-0.9-1.9-2c0-0.6-0.4-1-1-1s-1,0.4-1,1c0,1.1-1.4,2-3,2s-3-0.9-3-2c0-0.6-0.4-1-1-1   s-1,0.4-1,1c0,1.1-0.9,2-2,2c-1.1,0-1.9-0.8-2-1.9L39.8,12z"></path>
</g>
</svg>
