<?xml version="1.0" encoding="UTF-8"?>
<!-- Generator: Adobe Illustrator 27.9.0, SVG Export Plug-In . SVG Version: 6.00 Build 0)  -->
<svg xmlns="http://www.w3.org/2000/svg" xmlns:xlink="http://www.w3.org/1999/xlink" version="1.1" id="Layer_1" x="0px" y="0px" viewBox="0 0 61.1 66.5" style="enable-background:new 0 0 61.1 66.5;" xml:space="preserve">
<style type="text/css">
	.st0{fill:#F16136;}
	.st1{fill:#FFFFFF;}
</style>
<polygon class="st0" points="51.4,47.7 50.9,10 43.3,9.8 43.3,2.4 10.7,2.4 10.4,48.6 "></polygon>
<polygon class="st1" points="33.1,48 32.4,42.6 33.4,36.4 33.1,32.5 31.7,30.2 31.8,26.1 35.2,21.5 37.4,18.1 39.3,19.9 41.8,23.7   43.6,28.8 41,33.5 41.1,37.5 42.1,40.1 42.3,44.8 41.8,48 "></polygon>
<polygon class="st1" points="26.4,23.3 19,23.1 20,20.4 22.1,16.5 22.9,15.8 "></polygon>
<path d="M33,52.2h-4.4c-0.5,0-1,0.5-1,1s0.5,1,1,1H33c0.5,0,1-0.5,1-1S33.5,52.2,33,52.2z"></path>
<path d="M54.7,11.6h-2.4V9.9c0-0.4-0.2-0.6-0.3-0.7l0,0l0,0l-7.6-7.6c-0.3-0.3-0.7-0.3-0.7-0.3H10.3c-0.6,0-1,0.5-1,1v9.3H6.4  c-2.1,0-3.8,1.7-3.8,3.8v39.3c0,2.1,1.7,3.8,3.8,3.8h16.8c0.5,1.3,0.1,2.2-1.7,4.7h-3.1c-0.5,0-1,0.5-1,1s0.5,1,1,1h24.2  c0.5,0,1-0.4,1-1s-0.5-1-1-1h-3.1c-1.8-2.5-2.2-3.4-1.7-4.7h16.8c2.1,0,3.8-1.7,3.8-3.8V15.5C58.6,13.3,56.9,11.6,54.7,11.6z   M54.7,13.6c1,0,1.8,0.8,1.8,1.8v32.1h-4.3v-34H54.7z M44.7,8.9V4.7l4.2,4.2H44.7z M11.3,3.3h31.4v6.6c0,0.6,0.5,1,1,1h6.6v36.7  h-7.2c0.2-1.5,0.4-2.9,0.4-4.2c0-2.7-0.5-4.5-1.6-5.8v-4.4c1.5-1.3,2.5-3.2,2.5-5.3c0-3.5-5.5-11-6.2-11.8c-0.2-0.3-0.7-0.5-1-0.4  s-0.7,0.4-0.7,0.8c-0.3,2.3-1.7,3.9-3.1,5.5c-1.4,1.7-2.9,3.4-2.9,5.9c0,2,0.9,4,2.5,5.3v4.4c-1.1,1.2-1.6,3.1-1.6,5.8  c0,1.3,0.1,2.7,0.4,4.2h-3.5V23.5c0,0,0,0,0,0v0c0,0,0,0,0,0c0-0.1,0-0.2-0.1-0.4c0,0,0,0,0,0c0,0,0,0,0-0.1l-4.4-8.3  c-0.4-0.6-1.4-0.6-1.8,0L17.4,23c0,0,0,0,0,0.1c0,0,0,0,0,0.1c0,0.1-0.1,0.2-0.1,0.3c0,0,0,0,0,0v24.1h-6L11.3,3.3L11.3,3.3z   M34.8,34.4c0.8,0.3,1.7,0.5,2.5,0.5s1.7-0.2,2.5-0.5V37h-5.1L34.8,34.4L34.8,34.4z M40.3,32c-1.7,1.2-4.2,1.2-5.9,0  c-1.3-0.9-2-2.4-2-4c0-1.7,1.1-3,2.5-4.6c1.1-1.2,2.2-2.6,3-4.4c2.1,3,4.6,7.1,4.6,8.9C42.3,29.6,41.6,31,40.3,32z M33.2,43.4  c0-2.1,0.3-3.5,1-4.4h6.2c0.7,0.8,1,2.3,1,4.4c0,1.3-0.1,2.7-0.4,4.2h-7.5C33.4,46.1,33.2,44.7,33.2,43.4z M23.7,47.6V24.5h2.4v23.1  H23.7z M20,22.5l2.7-5.1l2.7,5.1H20z M19.3,24.5h2.4v23.1h-2.4C19.3,47.6,19.3,24.5,19.3,24.5z M6.4,13.6h2.9v34H4.6V15.5  C4.6,14.4,5.4,13.6,6.4,13.6z M37.1,63.3H24c1.2-1.8,1.7-3.1,1.3-4.7h10.5C35.4,60.2,36,61.5,37.1,63.3z M54.7,56.6H6.4  c-1,0-1.8-0.8-1.8-1.8v-5.2h52v5.2C56.6,55.8,55.8,56.6,54.7,56.6z"></path>
</svg>
