<?xml version="1.0" encoding="UTF-8"?>
<!-- Generator: Adobe Illustrator 27.9.0, SVG Export Plug-In . SVG Version: 6.00 Build 0)  -->
<svg xmlns="http://www.w3.org/2000/svg" xmlns:xlink="http://www.w3.org/1999/xlink" version="1.1" id="Layer_1" x="0px" y="0px" viewBox="0 0 48.3 63.4" style="enable-background:new 0 0 48.3 63.4;" xml:space="preserve">
<style type="text/css">
	.st0{fill:#F16136;}
	.st1{fill:#FFFFFF;}
</style>
<g>
	<polygon class="st0" points="6.6,17.9 9.1,17.1 45,17.1 45.9,18.5 45.6,48 44.1,49.1 7.6,48.8 6.1,47.3  "></polygon>
	<polygon class="st0" points="13.4,3.4 13.6,5.6 15.2,6.5 18.8,7 23.5,7.2 25.3,5.7 24.9,3.2  "></polygon>
	<path d="M43.1,16h-6V6c0-2.2-1.8-4-4-4h-28c-2.2,0-4,1.8-4,4v52c0,2.2,1.8,4,4,4h28c2.2,0,4-1.8,4-4v-8h6c2.2,0,4-1.8,4-4V20   C47.1,17.8,45.4,16,43.1,16z M24.1,4v1c0,0.6-0.4,1-1,1h-8c-0.6,0-1-0.4-1-1V4H24.1z M35.1,58c0,1.1-0.9,2-2,2h-28   c-1.1,0-2-0.9-2-2V6c0-1.1,0.9-2,2-2h7v1c0,1.7,1.3,3,3,3h8c1.7,0,3-1.3,3-3V4h7c1.1,0,2,0.9,2,2v10h-26c-2.2,0-4,1.8-4,4v26   c0,2.2,1.8,4,4,4h26V58z M45.1,46c0,1.1-0.9,2-2,2h-34c-1.1,0-2-0.9-2-2V20c0-1.1,0.9-2,2-2h34c1.1,0,2,0.9,2,2V46z"></path>
	<path class="st1" d="M19.4,33.7c0.4,0.4,1,0.4,1.4,0c0.4-0.4,0.4-1,0-1.4L16.6,28l4.3-4.3c0.4-0.4,0.4-1,0-1.4   c-0.4-0.4-1-0.4-1.4,0l-5,5c-0.4,0.4-0.4,1,0,1.4c0,0,0,0,0,0L19.4,33.7z"></path>
	<path class="st1" d="M32.8,22.3c-0.4-0.4-1-0.4-1.4,0c-0.4,0.4-0.4,1,0,1.4l4.3,4.3l-4.3,4.3c-0.4,0.4-0.4,1,0,1.4   c0.4,0.4,1,0.4,1.4,0c0,0,0,0,0,0l5-5c0.4-0.4,0.4-1,0-1.4c0,0,0,0,0,0L32.8,22.3z"></path>
	<path class="st1" d="M29.5,20.1c-0.5-0.2-1.1,0-1.3,0.5c0,0,0,0,0,0l-6,14c-0.2,0.5,0,1.1,0.5,1.3s1.1,0,1.3-0.5l6-14   C30.3,20.9,30,20.3,29.5,20.1C29.5,20.1,29.5,20.1,29.5,20.1z"></path>
	<path class="st1" d="M23.1,39h-12c-0.6,0-1,0.4-1,1s0.4,1,1,1h12c0.6,0,1-0.5,1-1C24.1,39.4,23.7,39,23.1,39z"></path>
	<path class="st1" d="M19.1,43h-8c-0.6,0-1,0.5-1,1c0,0.5,0.4,1,1,1h8c0.6,0,1-0.5,1-1C20.1,43.4,19.7,43,19.1,43z"></path>
	<path d="M15.1,58h8c0.6,0,1-0.5,1-1c0-0.5-0.4-1-1-1h-8c-0.6,0-1,0.5-1,1C14.2,57.6,14.6,58,15.1,58z"></path>
</g>
</svg>
