<?xml version="1.0" encoding="UTF-8"?>
<svg xmlns="http://www.w3.org/2000/svg" id="Layer_2" viewBox="0 0 511.88 533.91">
  <defs>
    <style>.cls-1{fill:#f16136;}</style>
  </defs>
  <g id="Layer_1-2">
    <g>
      <path d="m90.31,279.98l27.76,9.62,7.89,35.23c.68,2.99,3.34,5.12,6.4,5.12h0c1.99,0,3.87-.9,5.12-2.45h0s55.32-68.78,55.32-68.78l55.3,68.77c1.6,1.93,4.15,2.79,6.59,2.22,2.44-.57,4.35-2.46,4.93-4.9l7.9-35.23,27.76-9.62c2.02-.7,3.57-2.34,4.16-4.39.59-2.05.14-4.27-1.2-5.93h0s-34.88-43.38-34.88-43.38c9.11-7.39,14.39-18.49,14.37-30.21.02-6.94,2.82-13.58,7.78-18.44,7.3-7.34,11.38-17.29,11.34-27.65-.04-10.36-4.2-20.27-11.56-27.56-4.82-4.84-7.53-11.39-7.55-18.22.02-10.35-4.08-20.28-11.4-27.6-7.32-7.32-17.26-11.42-27.61-11.4-6.93-.04-13.57-2.84-18.43-7.77-7.34-7.32-17.29-11.42-27.65-11.38-10.37.04-20.28,4.22-27.56,11.59-4.84,4.82-11.38,7.53-18.21,7.55-10.32.07-20.2,4.2-27.5,11.5-7.3,7.3-11.43,17.18-11.5,27.5-.04,6.93-2.84,13.57-7.78,18.44-7.28,7.35-11.35,17.3-11.31,27.65.04,10.35,4.19,20.26,11.53,27.56,4.82,4.84,7.53,11.39,7.55,18.22,0,11.72,5.28,22.82,14.36,30.22l-34.88,43.37c-1.34,1.66-1.79,3.87-1.2,5.93.59,2.05,2.14,3.69,4.16,4.39Zm191.86-9.35l-22.41,7.76c-2.15.75-3.76,2.55-4.25,4.77h0s-5.71,25.5-5.71,25.5l-45.26-56.29h0c6.03-1.91,11.52-5.25,15.98-9.74,8.14-9.51,20.73-6.1,31.26-9.81l30.4,37.81Zm-161.19-74.56c-.06-10.41-4.23-20.38-11.62-27.72-4.84-4.88-7.53-11.49-7.49-18.37.04-6.88,2.82-13.45,7.71-18.28,7.27-7.3,11.37-17.19,11.4-27.5-.02-6.87,2.7-13.47,7.55-18.32,4.86-4.86,11.46-7.58,18.32-7.55,10.41-.05,20.38-4.23,27.72-11.62,4.93-4.75,11.52-7.38,18.37-7.34,6.85.04,13.41,2.75,18.28,7.56,7.3,7.27,17.18,11.37,27.49,11.4,6.87-.02,13.47,2.7,18.33,7.55,4.86,4.86,7.58,11.46,7.55,18.33.05,10.41,4.23,20.38,11.62,27.72,4.82,4.84,7.53,11.39,7.53,18.22s-2.71,13.38-7.53,18.21l4.64,4.64-4.86-4.42c-7.27,7.31-11.37,17.19-11.4,27.5.03,6.87-2.69,13.47-7.55,18.33-4.86,4.86-11.46,7.58-18.33,7.55-10.36.04-20.28,4.18-27.61,11.51-4.9,4.84-11.51,7.55-18.4,7.53-6.89-.02-13.49-2.77-18.36-7.64-7.31-7.27-17.19-11.37-27.5-11.4-4.17-.02-8.28-1.03-12-2.93h0c-4.18-2.21-7.68-5.51-10.12-9.56-2.45-4.04-3.74-8.68-3.75-13.4Zm12.83,36.75c10.61,3.71,23.11.42,31.38,9.92,4.43,4.45,9.87,7.75,15.86,9.63h0l-45.26,56.28-5.71-25.5c-.5-2.22-2.11-4.02-4.25-4.77l-22.41-7.76,30.4-37.81Z"></path>
      <path d="m491.47,20.52C478.41,7.42,460.68.04,442.18,0H79.77c-21.15.03-41.43,8.44-56.38,23.4C8.43,38.35.02,58.63,0,79.78v447.56c0,3.62,2.94,6.56,6.56,6.56h372.33c3.62,0,6.56-2.94,6.56-6.56v-166.17h119.86c3.62,0,6.56-2.94,6.56-6.56V69.86c0-18.5-7.34-36.25-20.4-49.34Zm-119.15,49.35v450.91H13.12V79.78c.02-17.67,7.05-34.61,19.54-47.1,12.49-12.5,29.43-19.52,47.1-19.55h321.69c-18.29,13.11-29.14,34.23-29.14,56.73Zm126.42,278.18h-113.3V69.87c-.02-15.04,5.94-29.47,16.57-40.1,10.62-10.64,25.05-16.62,40.08-16.62s29.46,5.98,40.09,16.62c10.62,10.64,16.59,25.07,16.57,40.1v278.18Z"></path>
      <path d="m87.34,269.66l34.88-43.37c-9.09-7.41-14.36-18.5-14.36-30.22-.02-6.83-2.74-13.38-7.55-18.22-7.34-7.3-11.49-17.21-11.53-27.56-.04-10.35,4.03-20.29,11.31-27.65,4.94-4.87,7.73-11.51,7.78-18.44.07-10.32,4.2-20.2,11.5-27.5,7.3-7.3,17.18-11.43,27.5-11.5,6.83-.02,13.37-2.74,18.21-7.55,7.28-7.38,17.2-11.55,27.56-11.59,10.36-.04,20.32,4.05,27.65,11.38,4.87,4.93,11.5,7.73,18.43,7.77,10.35-.02,20.29,4.08,27.61,11.4,7.32,7.32,11.42,17.25,11.4,27.6.02,6.83,2.74,13.38,7.55,18.22,7.36,7.29,11.52,17.2,11.56,27.56.04,10.35-4.04,20.3-11.34,27.65-4.95,4.86-7.75,11.5-7.78,18.44.02,11.72-5.26,22.83-14.37,30.21l34.88,43.38h0c1.34,1.66,1.79,3.87,1.2,5.93-.59,2.05-2.14,3.69-4.16,4.39l-27.76,9.62-7.9,35.23c-.58,2.43-2.49,4.33-4.93,4.9-2.44.57-4.99-.29-6.59-2.22l-55.3-68.77-55.32,68.77h0c-1.25,1.55-3.13,2.45-5.12,2.45h0c-3.07,0-5.72-2.13-6.4-5.12l-7.89-35.23-27.76-9.62c-2.02-.7-3.57-2.34-4.16-4.39-.59-2.05-.14-4.27,1.2-5.93Z"></path>
      <path d="m255.03,463.83h-124.62c-3.62,0-6.56-2.94-6.56-6.56s2.94-6.56,6.56-6.56h124.62c3.57.07,6.43,2.99,6.43,6.56s-2.86,6.49-6.43,6.56Z"></path>
      <path d="m317.47,418.43h0H68.09c-3.57-.07-6.43-2.99-6.43-6.56s2.86-6.49,6.43-6.56h249.37c3.57.07,6.43,2.99,6.43,6.56s-2.86,6.49-6.43,6.56Z"></path>
      <path d="m317.47,373.04h0H68.09c-3.57-.07-6.43-2.99-6.43-6.56s2.86-6.49,6.43-6.56h249.37c3.57.07,6.43,2.99,6.43,6.56s-2.86,6.49-6.43,6.56Z"></path>
      <path d="m255.03,450.7h-124.62c-3.62,0-6.56,2.94-6.56,6.56s2.94,6.56,6.56,6.56h124.62c3.57-.07,6.43-2.99,6.43-6.56s-2.86-6.49-6.43-6.56Z"></path>
      <path d="m317.47,405.31H68.1c-3.57.07-6.43,2.99-6.43,6.56s2.86,6.49,6.43,6.56h249.37c3.57-.07,6.43-2.99,6.43-6.56s-2.86-6.49-6.43-6.56Z"></path>
      <path d="m317.47,359.92H68.1c-3.57.07-6.43,2.99-6.43,6.56s2.86,6.49,6.43,6.56h249.37c3.57-.07,6.43-2.99,6.43-6.56s-2.86-6.49-6.43-6.56Z"></path>
      <path class="cls-1" d="m220.51,242.63c-4.46,4.49-9.95,7.83-15.98,9.74h0s45.26,56.29,45.26,56.29l5.71-25.5h0c.5-2.21,2.11-4.02,4.25-4.76l22.41-7.76-30.4-37.81c-10.53,3.71-23.12.3-31.26,9.81Z"></path>
      <path class="cls-1" d="m130.08,283.16l5.71,25.5,45.26-56.28h0c-5.99-1.88-11.43-5.18-15.86-9.63-8.27-9.5-20.77-6.21-31.38-9.92l-30.4,37.81,22.41,7.76c2.15.75,3.76,2.55,4.25,4.77Z"></path>
      <polygon points="276.22 168.36 276.22 168.35 276.22 168.35 276.22 168.36"></polygon>
      <path class="cls-1" d="m134.86,219.03h0c3.71,1.9,7.82,2.9,12,2.93,10.31.03,20.19,4.13,27.5,11.4,4.87,4.87,11.47,7.62,18.36,7.64,6.89.02,13.5-2.68,18.4-7.53,7.32-7.33,17.25-11.47,27.61-11.51,6.88.03,13.47-2.69,18.33-7.55,4.86-4.86,7.58-11.46,7.55-18.33.03-10.31,4.13-20.19,11.4-27.5l4.86,4.42-4.64-4.64s0,0,0,0h0s0,0,0,0c4.82-4.84,7.53-11.39,7.53-18.21s-2.71-13.38-7.53-18.22c-7.39-7.34-11.57-17.3-11.62-27.72.02-6.87-2.7-13.47-7.55-18.33-4.86-4.86-11.46-7.57-18.33-7.55-10.31-.03-20.19-4.13-27.49-11.4-4.88-4.8-11.43-7.52-18.28-7.56-6.84-.04-13.43,2.59-18.37,7.34-7.34,7.39-17.31,11.57-27.72,11.62-6.87-.02-13.47,2.7-18.32,7.55-4.86,4.86-7.57,11.45-7.55,18.32-.03,10.31-4.13,20.19-11.4,27.5-4.9,4.83-7.67,11.41-7.71,18.28-.04,6.88,2.66,13.48,7.49,18.37,7.39,7.34,11.57,17.3,11.62,27.72.01,4.72,1.31,9.36,3.75,13.4,2.45,4.04,5.95,7.35,10.12,9.55Zm109.55-68.89c-.02,13.69-5.46,26.81-15.14,36.48-9.68,9.68-22.8,15.12-36.48,15.14h0c-13.68-.02-26.8-5.46-36.48-15.14-9.68-9.68-15.12-22.8-15.14-36.48,2.42-68.32,100.82-68.3,103.24,0Z"></path>
      <path class="cls-1" d="m192.79,188.64c13.67-.12,26.26-7.48,33.06-19.34,6.8-11.86,6.8-26.45,0-38.3-6.8-11.86-19.39-19.23-33.07-19.34h0s0,0,0,0c-13.67.12-26.25,7.49-33.05,19.35-6.8,11.86-6.8,26.44,0,38.3s19.38,19.23,33.05,19.35Z"></path>
    </g>
  </g>
</svg>
