<?xml version="1.0" encoding="UTF-8"?>
<!-- Generator: Adobe Illustrator 27.9.0, SVG Export Plug-In . SVG Version: 6.00 Build 0)  -->
<svg xmlns="http://www.w3.org/2000/svg" xmlns:xlink="http://www.w3.org/1999/xlink" version="1.1" id="Layer_1" x="0px" y="0px" viewBox="0 0 64 62.4" style="enable-background:new 0 0 64 62.4;" xml:space="preserve">
<style type="text/css">
	.st0{fill:#F16136;}
	.st1{fill:#FFFFFF;}
</style>
<polygon class="st0" points="58.5,48 45.4,47.6 10.4,48.3 5,47.1 3,44.8 2.5,41.8 6.5,41.6 60.9,41.6 61,43 61,45.1 60.1,47 "></polygon>
<path class="st0" d="M22.1,15l1.2-1.1l1-0.4l0.5-1.7l-0.3-2.2l1.3-1.3l1.7-0.4l1.1,0.8L29.8,8l0.7-1.4c0,0,0.8-0.5,1-0.5  c0.2,0,2,0,2,0l0.3,0.7l0.1,1.1l1.9,0.9l1.8-1l2,2v0.7l-0.2,2.1l1.1,1.4l1.4,0.2l-0.2,3.4l-1.9,0.7l-0.1,2.1l0.5,1.4l-2.2,1.8  l-2-0.6l-1.2,0.8l-0.7,0.6l0.2,1.6L30.3,26l-0.6-1.9c0,0-1.1-0.8-1.4-0.8s-0.9,0-0.9,0l-1,0.8l-2.7-2.4l1.9-1.9l-1.5-1.9l-2.4,0.1  L22.1,15z"></path>
<polygon class="st1" points="32.6,20.1 30.3,19.5 29.5,18.8 28.1,17 28,13.8 29.3,13 29.9,12.4 31,12.2 32.4,12 34.6,12.8   35.1,13.8 35.5,15.4 35.9,16.8 35.2,18.8 34.1,19.6 "></polygon>
<path d="M57,1H7C4.2,1,2,3.2,2,6v38c0,2.8,2.2,5,5,5h19.7l-1.5,6H18c-0.6,0-1,0.4-1,1c0,2.8,2.2,5,5,5h20c2.8,0,5-2.2,5-5  c0-0.6-0.4-1-1-1h-7.2l-1.5-6H57c2.8,0,5-2.2,5-5V6C62,3.2,59.8,1,57,1z M7,3h50c1.7,0,3,1.3,3,3v35H4V6C4,4.3,5.3,3,7,3z M42,59H22  c-1.3,0-2.4-0.8-2.8-2H26h12h6.8C44.4,58.2,43.3,59,42,59z M36.7,55h-9.4l1.5-6h6.4L36.7,55z M57,47H36h-8H7c-1.7,0-3-1.3-3-3v-1h56  v1C60,45.7,58.7,47,57,47z"></path>
<path d="M23.3,29.3l-4,4c-0.4,0.4-0.4,1,0,1.4l4,4l1.4-1.4L21.4,34l3.3-3.3L23.3,29.3z"></path>
<rect x="27" y="33" transform="matrix(0.6002 -0.7999 0.7999 0.6002 -14.4011 39.1918)" width="10" height="2"></rect>
<path d="M40.7,29.3l-1.4,1.4l3.3,3.3l-3.3,3.3l1.4,1.4l4-4c0.4-0.4,0.4-1,0-1.4L40.7,29.3z"></path>
<path d="M22,19h1.5c0.1,0.3,0.2,0.6,0.4,0.9l-1.1,1.1c-0.2,0.2-0.3,0.4-0.3,0.7s0.1,0.5,0.3,0.7l2.8,2.8c0.4,0.4,1,0.4,1.4,0  l1.1-1.1c0.3,0.1,0.6,0.3,0.9,0.4V26c0,0.6,0.4,1,1,1h4c0.6,0,1-0.4,1-1v-1.5c0.3-0.1,0.6-0.2,0.9-0.4l1.1,1.1c0.4,0.4,1,0.4,1.4,0  l2.8-2.8c0.2-0.2,0.3-0.4,0.3-0.7s-0.1-0.5-0.3-0.7l-1.1-1.1c0.1-0.3,0.3-0.6,0.4-0.9H42c0.6,0,1-0.4,1-1v-4c0-0.6-0.4-1-1-1h-1.5  c-0.1-0.3-0.2-0.6-0.4-0.9l1.1-1.1c0.2-0.2,0.3-0.4,0.3-0.7s-0.1-0.5-0.3-0.7l-2.8-2.8c-0.4-0.4-1-0.4-1.4,0l-1.1,1.1  c-0.3-0.1-0.6-0.3-0.9-0.4V6c0-0.6-0.4-1-1-1h-4c-0.6,0-1,0.4-1,1v1.5c-0.3,0.1-0.6,0.2-0.9,0.4L27,6.8c-0.4-0.4-1-0.4-1.4,0  l-2.8,2.8c-0.2,0.2-0.3,0.4-0.3,0.7s0.1,0.5,0.3,0.7l1.1,1.1c-0.1,0.3-0.3,0.6-0.4,0.9H22c-0.6,0-1,0.4-1,1v4C21,18.6,21.4,19,22,19  z M23,15h1.3c0.5,0,0.9-0.3,1-0.8c0.2-0.6,0.4-1.2,0.7-1.8c0.2-0.4,0.2-0.9-0.2-1.2l-0.9-0.9l1.4-1.4l0.9,0.9  c0.3,0.3,0.8,0.4,1.2,0.2c0.6-0.3,1.2-0.6,1.8-0.7c0.4-0.1,0.7-0.5,0.7-1V7h2v1.3c0,0.5,0.3,0.9,0.8,1c0.6,0.2,1.2,0.4,1.8,0.7  c0.4,0.2,0.9,0.2,1.2-0.2l0.9-0.9l1.4,1.4l-0.9,0.9c-0.3,0.3-0.4,0.8-0.2,1.2c0.3,0.6,0.6,1.2,0.7,1.8c0.1,0.4,0.5,0.7,1,0.7H41v2  h-1.3c-0.5,0-0.9,0.3-1,0.8c-0.2,0.6-0.4,1.2-0.7,1.8c-0.2,0.4-0.2,0.9,0.2,1.2l0.9,0.9l-1.4,1.4l-0.9-0.9c-0.3-0.3-0.8-0.4-1.2-0.2  c-0.6,0.3-1.2,0.6-1.8,0.7c-0.4,0.1-0.7,0.5-0.7,1V25h-2v-1.3c0-0.5-0.3-0.9-0.8-1c-0.6-0.2-1.2-0.4-1.8-0.7  c-0.4-0.2-0.9-0.2-1.2,0.2l-0.9,0.9l-1.4-1.4l0.9-0.9c0.3-0.3,0.4-0.8,0.2-1.2c-0.3-0.6-0.6-1.2-0.7-1.8c-0.1-0.4-0.5-0.8-1-0.8H23  V15z"></path>
<path d="M32,21c2.8,0,5-2.2,5-5s-2.2-5-5-5s-5,2.2-5,5S29.2,21,32,21z M32,13c1.7,0,3,1.3,3,3s-1.3,3-3,3s-3-1.3-3-3S30.3,13,32,13z  "></path>
<rect x="18" y="9" width="2" height="2"></rect>
<rect x="14" y="9" width="2" height="2"></rect>
<rect x="10" y="9" width="2" height="2"></rect>
<rect x="6" y="9" width="2" height="2"></rect>
<rect x="6" y="13" width="2" height="2"></rect>
<rect x="6" y="17" width="2" height="2"></rect>
<rect x="6" y="21" width="2" height="2"></rect>
<rect x="6" y="25" width="2" height="2"></rect>
<rect x="6" y="29" width="2" height="2"></rect>
<rect x="6" y="33" width="2" height="2"></rect>
<rect x="10" y="33" width="2" height="2"></rect>
<rect x="14" y="33" width="2" height="2"></rect>
<rect x="48" y="33" width="2" height="2"></rect>
<rect x="52" y="33" width="2" height="2"></rect>
<rect x="56" y="33" width="2" height="2"></rect>
<rect x="56" y="29" width="2" height="2"></rect>
<rect x="56" y="25" width="2" height="2"></rect>
<rect x="56" y="21" width="2" height="2"></rect>
<rect x="56" y="17" width="2" height="2"></rect>
<rect x="56" y="13" width="2" height="2"></rect>
<rect x="56" y="9" width="2" height="2"></rect>
<rect x="52" y="9" width="2" height="2"></rect>
<rect x="48" y="9" width="2" height="2"></rect>
<rect x="44" y="9" width="2" height="2"></rect>
</svg>
