<svg width="17" height="16" viewBox="0 0 17 16" fill="none" xmlns="http://www.w3.org/2000/svg">
<path d="M4.482 5.15381H1.26596C1.12322 5.15381 1.00757 5.26951 1.00757 5.4122V15.744C1.00757 15.8867 1.12322 16.0023 1.26596 16.0023H4.482C4.62473 16.0023 4.74038 15.8867 4.74038 15.744V5.4122C4.74038 5.26951 4.62473 5.15381 4.482 5.15381Z" fill="white"/>
<path d="M2.87511 0.0175781C1.70493 0.0175781 0.75293 0.968546 0.75293 2.13744C0.75293 3.30685 1.70493 4.25818 2.87511 4.25818C4.04437 4.25818 4.99559 3.30679 4.99559 2.13744C4.99565 0.968546 4.04437 0.0175781 2.87511 0.0175781Z" fill="white"/>
<path d="M12.6622 4.89697C11.3705 4.89697 10.4157 5.45225 9.8365 6.08318V5.41214C9.8365 5.26946 9.72085 5.15376 9.57812 5.15376H6.49819C6.35546 5.15376 6.23981 5.26946 6.23981 5.41214V15.7439C6.23981 15.8866 6.35546 16.0023 6.49819 16.0023H9.70721C9.84994 16.0023 9.96559 15.8866 9.96559 15.7439V10.6321C9.96559 8.90952 10.4335 8.23843 11.6343 8.23843C12.942 8.23843 13.0459 9.31425 13.0459 10.7207V15.744C13.0459 15.8867 13.1616 16.0023 13.3043 16.0023H16.5145C16.6573 16.0023 16.7729 15.8867 16.7729 15.744V10.0768C16.7729 7.51542 16.2845 4.89697 12.6622 4.89697Z" fill="white"/>
</svg>
