<svg width="17" height="17" viewBox="0 0 17 17" fill="none" xmlns="http://www.w3.org/2000/svg">
<path d="M8.80083 3.87984C11.0536 3.87984 12.9131 5.73931 12.9131 7.99212C12.9131 10.2807 11.0536 12.1044 8.80083 12.1044C6.51226 12.1044 4.68855 10.2807 4.68855 7.99212C4.68855 5.73931 6.51226 3.87984 8.80083 3.87984ZM8.80083 10.674C10.2669 10.674 11.447 9.494 11.447 7.99212C11.447 6.526 10.2669 5.34596 8.80083 5.34596C7.29895 5.34596 6.11891 6.526 6.11891 7.99212C6.11891 9.494 7.33471 10.674 8.80083 10.674ZM14.0216 3.73681C14.0216 4.27319 13.5925 4.7023 13.0561 4.7023C12.5198 4.7023 12.0907 4.27319 12.0907 3.73681C12.0907 3.20042 12.5198 2.77132 13.0561 2.77132C13.5925 2.77132 14.0216 3.20042 14.0216 3.73681ZM16.7393 4.7023C16.8108 6.02538 16.8108 9.99462 16.7393 11.3177C16.6678 12.605 16.3817 13.7136 15.452 14.679C14.5223 15.6088 13.378 15.8948 12.0907 15.9664C10.7676 16.0379 6.79833 16.0379 5.47525 15.9664C4.18793 15.8948 3.0794 15.6088 2.11391 14.679C1.18418 13.7136 0.898105 12.605 0.826588 11.3177C0.75507 9.99462 0.75507 6.02538 0.826588 4.7023C0.898105 3.41498 1.18418 2.27069 2.11391 1.34096C3.0794 0.411228 4.18793 0.125156 5.47525 0.0536384C6.79833 -0.0178795 10.7676 -0.0178795 12.0907 0.0536384C13.378 0.125156 14.5223 0.411228 15.452 1.34096C16.3817 2.27069 16.6678 3.41498 16.7393 4.7023ZM15.0229 12.7123C15.452 11.6753 15.3447 9.17217 15.3447 7.99212C15.3447 6.84784 15.452 4.34471 15.0229 3.27194C14.7368 2.59252 14.2004 2.02038 13.521 1.77007C12.4482 1.34096 9.94512 1.44824 8.80083 1.44824C7.62078 1.44824 5.11766 1.34096 4.08065 1.77007C3.36547 2.05614 2.82909 2.59252 2.54302 3.27194C2.11391 4.34471 2.22119 6.84784 2.22119 7.99212C2.22119 9.17217 2.11391 11.6753 2.54302 12.7123C2.82909 13.4275 3.36547 13.9639 4.08065 14.2499C5.11766 14.679 7.62078 14.5718 8.80083 14.5718C9.94512 14.5718 12.4482 14.679 13.521 14.2499C14.2004 13.9639 14.7726 13.4275 15.0229 12.7123Z" fill="white"/>
</svg>
