<svg width="17" height="17" viewBox="0 0 17 17" fill="none" xmlns="http://www.w3.org/2000/svg">
<g clip-path="url(#clip0_27_144)">
<path d="M4.482 5.15381H1.26596C1.12322 5.15381 1.00757 5.26951 1.00757 5.4122V15.744C1.00757 15.8867 1.12322 16.0023 1.26596 16.0023H4.482C4.62473 16.0023 4.74038 15.8867 4.74038 15.744V5.4122C4.74038 5.26951 4.62473 5.15381 4.482 5.15381Z" fill="white"/>
<path d="M2.87511 0.0175781C1.70493 0.0175781 0.75293 0.968546 0.75293 2.13744C0.75293 3.30685 1.70493 4.25818 2.87511 4.25818C4.04437 4.25818 4.99559 3.30679 4.99559 2.13744C4.99565 0.968546 4.04437 0.0175781 2.87511 0.0175781Z" fill="white"/>
<path d="M12.6621 4.89697C11.3704 4.89697 10.4156 5.45225 9.83644 6.08318V5.41214C9.83644 5.26946 9.72079 5.15376 9.57806 5.15376H6.49813C6.3554 5.15376 6.23975 5.26946 6.23975 5.41214V15.7439C6.23975 15.8866 6.3554 16.0023 6.49813 16.0023H9.70715C9.84988 16.0023 9.96553 15.8866 9.96553 15.7439V10.6321C9.96553 8.90952 10.4334 8.23843 11.6342 8.23843C12.9419 8.23843 13.0459 9.31425 13.0459 10.7207V15.744C13.0459 15.8867 13.1615 16.0023 13.3043 16.0023H16.5145C16.6572 16.0023 16.7728 15.8867 16.7728 15.744V10.0768C16.7728 7.51542 16.2844 4.89697 12.6621 4.89697Z" fill="white"/>
</g>
<defs>
<clipPath id="clip0_27_144">
<rect width="16.02" height="16.02" fill="white" transform="translate(0.75293)"/>
</clipPath>
</defs>
</svg>
